<svg version="1" xmlns="http://www.w3.org/2000/svg" width="682.667" height="682.667" viewBox="0 0 512.000000 512.000000"><path d="M44.4 1.5C23.6 6 5.9 23.9 1.4 44.9-1.2 57.5.3 69.5 6.2 81.6c6.1 12.8 22.8 26.6 34.9 29.1 1.6.3 2.9.8 2.9 1 0 .3-2.6 4.9-5.9 10.2-12 19.7-21.7 41.6-27.6 62.3-20.2 70-10.3 143.4 27.6 205.9 3.3 5.3 5.9 9.9 5.9 10.2 0 .2-1.3.7-2.9 1-12.1 2.5-28.8 16.3-34.9 29.1-11 22.7-6.9 46.9 10.8 64.6 22.6 22.6 56.4 22.6 79 0 7.5-7.4 13.2-16.9 14.7-24.1.3-1.6.8-2.9 1-2.9.3 0 4.9 2.6 10.2 5.9 19.7 12 41.6 21.7 62.3 27.6 70 20.2 143.4 10.3 205.9-27.6 5.3-3.3 9.9-5.9 10.2-5.9.2 0 .7 1.3 1 2.9 2.5 12.1 16.3 28.8 29.1 34.9 22.7 11 46.9 6.9 64.6-10.8 17.7-17.7 21.8-41.9 10.8-64.6-6.1-12.8-22.8-26.6-34.9-29.1-1.6-.3-2.9-.8-2.9-1 0-.3 2.6-4.9 5.9-10.2 12-19.7 21.7-41.6 27.6-62.3 20.2-70 10.3-143.4-27.6-205.9-3.3-5.3-5.9-9.9-5.9-10.2 0-.2 1.3-.7 2.9-1 12.1-2.5 28.8-16.3 34.9-29.1 8-16.5 8-33.7 0-50.2-4.5-9.4-15.8-20.7-25.2-25.2C457.9-4.8 433.7-.7 416 17c-7.5 7.4-13.2 16.9-14.7 24.1-.3 1.6-.8 2.9-1 2.9-.3 0-4.9-2.6-10.2-5.9-19.7-12-41.6-21.7-62.3-27.6C257.8-9.7 184.4.2 121.9 38.1c-5.3 3.3-9.9 5.9-10.2 5.9-.2 0-.7-1.3-1-2.9C108.2 29 94.4 12.3 81.6 6.2 69.5.3 57-1.2 44.4 1.5zm25.3 32.1c9.3 5.8 14 14.9 13 25.5-.6 6.8-2.3 10.3-7.8 15.8-6.5 6.5-9.2 7.6-18.5 7.6-7.2 0-8.6-.3-12.9-3-9.6-5.9-14.2-14.9-13.2-25.8.9-9.7 8-18.8 17.3-22.3 6.3-2.3 16.4-1.3 22.1 2.2zm222.8-.7C341 41.2 384.6 64 418 98.6c33.2 34.4 53.8 75.9 61.7 123.9 2.5 15.5 2.5 51.5 0 67-6.7 41.1-22.8 77.4-48.4 109-4.5 5.5-11.3 13.1-15.2 16.9-6.9 6.8-7 6.9-8 4.5-.6-1.3-27.4-79.6-59.6-173.9-32.2-94.3-59.3-172.6-60.3-174-4-5.5-6.6-6-32.2-6s-28.2.5-32.2 6c-1 1.4-28.1 79.7-60.3 174-32.2 94.3-59 172.6-59.6 173.9-1 2.4-1.1 2.3-8-4.5-3.9-3.8-10.7-11.4-15.2-16.9-25.6-31.6-41.7-67.9-48.4-109-2.5-15.5-2.5-51.5 0-67C40.5 172.4 63.4 128 98.6 94c37.8-36.5 84.1-57.8 137.9-63.4 10.4-1.1 44.4.3 56 2.3zm176.2.7c16.5 10.2 17.8 32.4 2.5 44.1-5.4 4.1-11.1 5.7-18.3 5-6.8-.6-10.3-2.3-15.8-7.8-6.5-6.5-7.6-9.2-7.6-18.5 0-7.2.3-8.6 3-12.9 6-9.6 13.8-13.8 24.8-13.1 5.3.3 7.8 1 11.4 3.2zM268.4 108c3.1 9.8 57.3 174.5 59.1 179.7.3 1-14.4 1.3-71.4 1.3h-71.9l4.2-13.3c2.4-7.2 16.8-50.9 32.1-97l27.8-83.8 8 .3 8.1.3 4 12.5zm90.3 273.5c11.1 33.5 20.2 61.8 20.2 62.7.2 3.1-27.1 17.6-45.6 24.2-27.2 9.7-47 13.1-77.3 13.1-30.3 0-50.1-3.4-77.3-13.1-17.1-6.1-45.7-21-45.7-23.8 0-1.3 39.8-122.4 40.7-123.9.2-.4 37.4-.6 82.6-.5l82.1.3 20.3 61zM67.6 431.3c3.9 2 11.1 9.2 13.1 13.1 2.1 4 2.8 13.2 1.4 18.3-1.6 5.7-6.7 12.1-12.6 15.8-4.3 2.7-5.7 3-13 3s-8.7-.3-13-3c-9.6-5.9-14.2-14.9-13.2-25.8.9-9.7 8-18.8 17.3-22.3 4.8-1.8 15.7-1.3 20 .9zm395.6-1.3c2.1.6 5.7 2.5 8 4.3 11.8 9 14.3 25.4 5.5 36.9-9 11.8-25.4 14.3-36.9 5.5s-14.3-25.5-6-36c8.2-10.2 18.1-13.8 29.4-10.7z"/></svg>