<svg version="1" xmlns="http://www.w3.org/2000/svg" width="682.667" height="682.667" viewBox="0 0 512.000000 512.000000"><path d="M233.5 6c-11.4 1.2-26.6 3.6-34.2 5.5-1.3.3-3.3.7-4.4 1-27.6 6-68.6 25.9-91.9 44.4-2.4 2-5.3 4.3-6.3 5.1-2.7 2.2-13.4 11.9-17.6 16.1-23.8 23.5-43.4 53.1-56.6 85.4-2.4 5.8-9.5 28.3-10.5 33-.4 2.2-1.5 7.4-2.3 11.5-3.5 17.2-4.2 25-4.2 47.5 0 18.3.7 28.9 2.5 38.4.5 2.6 1.1 6.6 1.5 9.1 1.7 12.2 9.7 37.8 16.6 53.7 28 63.7 82.1 113.8 147.4 136.3 19.6 6.7 39.2 11.1 57.2 12.8 12.2 1.1 46.9.7 56.3-.6 59.8-8.8 105.7-31.5 148-73.3 32.7-32.4 57.4-78.7 66.9-125.9 4.5-22.5 6.3-54.8 4-73.5-1.8-14.6-2.1-16.9-2.5-18.9-.2-1.2-.7-3.7-1-5.6-.9-5.7-6.3-25.7-9.4-34.7-15.9-45.8-46.5-87.8-85.6-117.4C375.1 31.5 339.3 16 298 8.5c-16.2-3-47.8-4.2-64.5-2.5zm50.2 2.6c104.2 12.1 188.6 86.3 214 187.9 2.2 8.9 2.3 9.4 4.3 21.5 3.6 21.8 3.4 57.1-.5 79-12.8 72.4-53 132.2-115 170.9-30.9 19.3-66 31.3-104.4 35.6-10.9 1.2-47.1 1.3-53.1.1-1.4-.2-4.7-.7-7.4-1.1-7.2-.9-20.3-3.4-26.6-5.2-3-.8-6.8-1.8-8.5-2.2-11-2.8-30.2-10.5-44.1-17.7-70-36.1-118.7-102.5-131.8-179.9-5-29.1-3.9-71.3 2.4-95.5.5-1.9 1.1-4.9 1.4-6.5.7-3.6 7.6-25 10.5-32.3C52.6 93.5 114.4 37.6 186.3 17.1c11.3-3.2 17.4-4.7 22.7-5.6 1.9-.3 6-1 9-1.5 3-.6 9.3-1.3 14-1.7 4.7-.3 8.7-.7 8.9-.9 1-.8 32.8.1 42.8 1.2z"/><path d="M264.3 28.7C251.7 39.4 222 67.7 219 72c-2.2 3.1-2.9 9-3.5 30.5-.3 9.3-.7 21.3-1 26.5-.7 14.7-1.8 35.2-2.1 38-.1 1.4-.3 3.6-.3 5-.1 1.5-4.1-7.2-9.5-20.6-9.8-24.2-13-31-15.3-31.9-1.6-.6-4.5 1.4-11.3 7.9-11.6 11.1-23.3 24-27.3 30.3-8 12.2-21.1 46.3-22.5 58.5-1.3 10.5-.6 45.8 1.3 68.3.8 9.6 2.2 23.1 3 28.5.2 1.4.7 5.6 1 9.5.4 3.8.8 7.4.9 7.8.2 1.2-2.3 2.5-7.1 3.7-3.1.8-4.7 1.9-5.7 3.8-1.8 3.4-8.6 26.9-8.6 29.5 0 1 4.4 8.2 9.7 16 9.7 14.2 51.4 74.9 51.8 75.5.2.2 5.2.4 11.1.4 12 .1 16.3 1 21 4.2 2.9 1.9 14.7 12.1 18.3 15.7 5 4.9 14.5 11.9 16.3 11.9 1.1 0 5.9-1.5 10.7-3.4 17-6.7 18-6.8 44.6-7 11.6-.1 21.5-.5 22.2-.9.7-.4 2.9-4 4.9-7.8 5.7-10.9 7.6-12.3 18.6-14.3 5.1-1 10.6-2.3 12.2-2.9 6.5-2.4 22.9-22.2 22.9-27.6 0-2 .6-2.6 2.4-2.7 3-.2 5.2-3 5.3-6.6 0-1.5-.9-6.2-2.1-10.5-2.4-8.7-2.2-13.4 1.2-31 1.2-6 2.3-11.9 2.6-13.3.2-1.4 2.9-14.6 5.9-29.4 4.4-22 5.2-27.2 4.2-28.5-.7-.8-3-3.2-5-5.2-6.6-6.6-12.9-14-12.4-14.7.2-.4.7-5.2 1.1-10.7.4-5.5.8-11.6 1.1-13.5.9-9.1.4-21.8-1.1-26.8-3.5-11.6-11.8-27.3-13.5-25.5-.5.4-2.5 3.9-4.5 7.8-4.1 7.8-6.2 10.5-8.1 10.5-1 0-1.1.6-.5 2.3 1.5 4-.7 7.1-5.4 7.5-5.6.5-6.4 1.8-2.1 3.6 3.8 1.6 5.2 4.8 1.7 3.9-1.6-.4-1.9-.1-1.4 1.5.2 1.1 0 2.3-.6 2.6-1.5.9-5.1-5.3-5.1-8.7 0-2.1-.5-2.7-2.2-2.7-1.3 0-4-1.9-6.6-4.7l-4.5-4.6 3.2 5.7c1.7 3.2 4.4 7.7 6 10 4.3 6.3 4.6 7 3 6.1-6.1-3.6-13.1-8.9-14-10.7-.7-1.4-.9-4.5-.5-8.7.7-7.9 4.4-15.6 12.2-25.3 4.8-5.9 5.7-6.6 7.7-5.9 1.2.5 6.5 2.7 11.7 5 11.6 5.1 10.5 3.7-3.2-3.8l-10.3-5.8-2.2-11.4c-1.2-6.3-2.5-12.8-2.8-14.4-.3-1.7-.8-4.1-1-5.5-.3-1.4-.7-3.6-1-5-.3-1.4-1.7-8.6-3.1-16-1.4-7.4-2.8-14.6-3-16-1.2-6.5-8.5-43.7-9-45.2-.3-1-8.2-11.3-17.6-23-23.1-28.8-28.1-34.7-29.5-34.7-.7-.1-4.3 2.5-8 5.6zm4.2 2.3c-.2 1.2.4 2.5 1.5 3.2 1 .6 1.6 1.8 1.3 2.5-.6 1.6-3 1.7-3.5.1-.3-.7-1.4-.9-3.2-.4-2.2.5-2.5 1-1.7 2 .6.8 2.5 1.6 4.1 1.9 4.3.9 5.3 3.8 5.3 15.1-.1 13.4-.8 17.3-4.2 22.1-3.5 5-4.1 6.6-2.9 8.8 1 2 2.8 1.4 2.8-1.1 0-.9.5-2.4 1-3.2 1.6-2.6 3.3.3 2.6 4.4-.6 2.9-1.3 3.7-4.2 4.6-2.2.7-3.9 2.1-4.4 3.6-.7 1.7-1.7 2.4-3.6 2.4-2.6 0-2.6.1-1 1.9 1 1.1 2 3.8 2.3 6 .6 4.5 2.4 6.6 4.9 5.7 1.5-.6 1.5-.8 0-2.5-3.1-3.4-1.5-14.9 1.9-13.8 1.2.5 1.6 13.6.4 15.9-.5.9-1 6.3-1.2 12-.2 5.6-.9 11.2-1.5 12.4-.6 1.1-1.3 5.6-1.6 10-.6 7.2-2 22.6-3.1 31.4-.2 1.9-.7 6.2-1 9.5-.8 8.5-1.3 9.7-3.6 9-2.3-.8-2.4-.2-.3 3 .9 1.3 1.4 3.2 1.2 4.1-.4 2.3-5 3.5-7.9 2-2.5-1.3-3.1-3.4-1.9-7.6.8-2.7.5-3-3-4.8l-3.9-1.9 1.8 3.6c1.1 2.3 1.6 5 1.4 7.5-.4 2.9 0 4.3 1.2 5.2 1.5 1.1 1.5 1.3-.4 1.9-1.2.3-2.1 1.4-2.1 2.4 0 1.3.7 1.6 3.4 1.3 2.8-.3 3.5 0 4.1 1.8.4 1.4.2 2.7-.7 3.6-1.2 1.2-2.1 1.2-6.4-.2-2.7-.9-5.5-1.8-6.1-2-1.8-.5-1.7-6.4.1-6.4 3.4 0 5.8-6.9 2.6-7.7-1.5-.4-1.8-1.1-1.3-3.4.5-2.8.5-2.9-2.1-1.9-3 1.1-3.4 0-1.1-4 1.9-3.3 1.9-6.5-.1-8.1-1.5-1.2-1.6-1-1 1.9.7 3 .6 3.1-1.6 2.3-2.4-.9-2.4-.7-1.6-11.1.2-1.9 1.1-4.1 2.1-4.8 1.2-.9 1.7-2.8 1.8-6.5 0-6.2 2.9-14.3 5-14 .7.1 3.1.6 5.2 1.1 4.4 1.2 4.8.7 4-4.1l-.5-3.6-2.9 1.5c-3.2 1.6-3.6 1.6-6.1.3-2.1-1.1-1.3-3.7 1.9-6.3 2.2-1.7 2.3-2 .9-3.5-1.5-1.6-1.4-2.2.9-6.7 2.9-5.7 3.1-7.4.8-7.4-1.5 0-1.4-.2.2-2 1.2-1.3 1.6-3 1.3-5.5l-.4-3.7 2.9 3.4 2.9 3.3-.7-3.4c-.6-2.9-.5-3.3 1-2.8 1.3.6 1.6.2 1.3-2.1-.2-1.8.1-2.6 1.1-2.4 1.5.3 4.1-1.6 4.1-3 0-1.1-4.2-2.7-5.7-2.1-.7.3-1.3 1.3-1.3 2.2 0 1-.7 2.6-1.5 3.7-1.5 1.8-1.5 1.6-1-2.6 1.1-7.9 2.5-10.2 3.9-6.4.8 2.2 2.6.7 2.2-1.9-.4-2.7 1.1-4.8 2.9-4.1 1 .4 1.2 0 .8-1.5-.4-1.6-.1-2.1 1.5-2.1 2.3 0 4.7-2.5 3.7-4-1.1-1.8-2.4-1.1-7.4 3.5-2.6 2.5-5.7 4.5-6.9 4.5-1.9 0-17.8-11.6-24.5-17.8l-2.8-2.7 6.9-6.5c7.4-7 21.3-20.1 28.2-26.5 3.9-3.6 12.2-10.5 12.7-10.5.1 0 0 .9-.2 2zm15.9 9.6c3 4.1 6.1 9.1 6.8 11 .7 2.1 1.9 3.4 2.9 3.4 2.3 0 10.2 8.9 12.9 14.5 1.2 2.5 3.5 5.4 5.1 6.6 2.5 1.7 2.9 2.6 2.5 5.2-.3 2 .2 4.2 1.4 6.2 1 1.7 2.2 4.6 2.5 6.5.3 1.9 1.2 5.7 2 8.5 1.2 4.2 5.3 24.4 6.9 33.5.6 3.7 6.4 34.1 7.1 37 .3 1.4.8 3.8 1.1 5.5.2 1.6.9 4.6 1.4 6.5.5 1.9 1.1 5.3 1.4 7.5.3 3.6 0 4.3-3.7 7.8-2.3 2.1-4.2 4.4-4.3 5.2-.1.7-1.5 3.3-3.2 5.7-4.3 6.4-6.1 10.1-7.3 15.7-.6 2.7-1.7 5.5-2.5 6.2-1.3 1-1.2 1.4.1 2.9 1.8 2 2.5 8.2 1.4 12.1-.4 1.5-1 6.7-1.3 11.5-.9 11.9-1.6 16.4-2.7 16.4-1 0-1 0-1.3-12-.1-4.7-.8-9.5-1.4-10.8-.7-1.2-1.5-7-1.7-13-.5-11.7-1.4-30.5-2-39.2-1-14.1-1.7-22.8-2-26.5-.2-2.2-.7-9.4-1.1-16-.3-6.6-.8-14-1-16.5-.2-2.5-.3-10.4-.4-17.7-.1-10.2-.4-13.6-1.5-14.7-.8-.8-1.5-2.1-1.5-2.9 0-2.5 4-6.7 6.4-6.7 1.9 0 2.2-.4 1.8-2.5-.3-1.9.3-3.2 2.8-5.4 3.2-2.8 3.3-2.9 1.2-4-2.7-1.4-5.3-1.4-7.4.3-2.4 1.8-2.3 2.5.2 1.9 2.8-.7 2.5.7-1.1 5.7-2.8 3.9-3.2 4.1-4.3 2.4-2.1-3-22.6-61.2-22.6-64.2 0-2.1.7-1.4 6.4 6.4zm-2.4 15c1.6 5.9 3 12.4 3 14.5 0 2.3.5 3.9 1.5 4.2 3 1.2 6.8 15.8 4.5 17.2-.7.4-.9 1.9-.5 3.8.7 3.1.6 3.1-1.1 1.5-1.3-1.3-1.7-3-1.5-6.3.2-3.7-.3-4.9-2.4-6.9-1.4-1.3-2.5-3.1-2.5-3.9 0-.9-1.4-2.4-3-3.2-1.7-.9-3.5-2.7-4-4.1-1.1-2.8-1.4-28.3-.3-30.9.5-1.5.8-1.4 1.9.8.7 1.3 2.7 7.3 4.4 13.3zM230.8 85c1.2 1.1 2.2 3 2.2 4 0 1.1.3 1.9.8 1.9 2.7-.5 5.5.4 8.1 2.7 3.9 3.2 4 6.4.7 16.1-1.3 3.8-2.6 8.8-2.9 10.9-.4 2.1-1.5 7.9-2.6 12.9-1 4.9-2.6 12.3-3.5 16.3-3 13.8-10.6 43.4-11.7 45.4-3.5 6.5-6.3-12.2-6.2-40.8.1-8.9.5-13.9 1.4-15.5 1-1.8 1.4-9.6 1.5-31.4.1-16 .2-29.3.3-29.7.1-1 8.8 4.3 11.9 7.2zm48.2-2.5c1.3 1.4 2.1 2.8 1.8 3.1-.9.9-5.8-2.7-5.8-4.2 0-2.1 1.4-1.7 4 1.1zm2.2 6.6c3.2 1.1 3.9 1.9 4.4 4.8.9 5.8 1.2 6.1 4.6 6.1 1.8 0 3.8.4 4.5.8 3.3 2.1 5.6 13.7 3.4 17.1-.7 1-.5 1.8.6 2.6 2.4 1.8 3 14.4.9 18.6-1.5 2.9-1.5 3.6-.2 6.3.8 1.7 1.7 5.3 2 8.1.4 2.7.9 6.6 1.1 8.5.3 1.9.7 6.9 1 11 .3 4.1.8 9.3 1 11.5.2 2.2.6 8.9 1 15 .3 6 .8 13.5 1 16.5.2 3 .7 10.2 1 16 .3 5.8.8 13 1 16 .2 3 .7 9.5 1 14.5.7 12.4 1.5 23.1 2 29 1.2 12.9 1.4 20.1.7 21.2-.4.6-2.1 1.3-3.7 1.5-2.7.3-3 .7-3.3 4.5-.2 2.9-.9 4.6-2.2 5.3-1 .5-2.1 2.3-2.5 3.9-.4 1.9-1.8 3.5-4.1 4.7-1.8 1-3.4 2.2-3.4 2.5 0 .4 1.6 1 3.6 1.3 1.9.4 4.2 1 5.1 1.3 1.2.5 1.4.1.9-1.4-.5-1.5.2-2.9 2.3-5 2.9-2.9 3-3 4.8-1.1 1.1 1 3.5 2.6 5.4 3.6 3.9 1.9 6.8 7 6.9 12 0 2.9-.3 3.2-2 2.7-2-.6-1.9-.7-3.6 7.5-.8 3.5-2.4 7.1-12.2 27l-8.7 17.4-.6-3.9c-.4-2.2-1-6-1.4-8.5-.4-2.5-.8-12.1-1-21.4-.2-12-.6-17-1.5-17.6-.8-.5-1-1.8-.5-3.9.8-3.5 2.5-5.2 2.5-2.3 0 2.3 3.3 6.8 6.1 8.3 2 1 2 .9.5-2-.9-1.6-1.6-4.6-1.6-6.5 0-3.1-.4-3.6-2.7-4.2-5-1-5.3-1.3-5.3-4.3 0-1.8-.7-3.4-1.7-3.9-1.4-.9-1.4-1 .5-1.6 1.3-.4 2.2-1.6 2.2-2.6 0-1.3-.5-1.7-1.5-1.4-1.6.7-1.6.7-1.9-9.6-.1-3.6-.7-7.5-1.4-8.7-.7-1.2-2.8-8.2-4.7-15.5-2-7.3-4.7-15.1-6-17.3-1.3-2.2-5.5-6.8-9.4-10.3-9.8-8.8-10.4-10.2-9.7-22.6.4-5.6.8-11.3 1-12.6.3-1.4.7-5.2 1.1-8.5.3-3.3.7-7.1 1-8.5.2-1.4.7-5.2 1-8.5.3-3.3.7-7.1 1-8.5.2-1.4.6-4.5.9-7 1.1-9.2 2.7-22.6 3.1-25 .7-4.8 1.5-10.5 2-15 .5-4.4 1.5-11 2-14 .3-1.5 1.6-10.9 2-14.5 1-7.7 3.9-22.2 4.6-23.1.5-.6.4-2.5-.1-4.5-1.2-4.3-1.3-4.2.3-3.6.6.2 2.9 1 4.9 1.8zm-105.3 58.4c-4.4 12.1-8.4 22.4-8.8 22.8-.8.8-16.1-10.8-16.1-12.1 0-.8 32.3-33.3 32.7-32.9.1.2-3.4 10.2-7.8 22.2zm20.5-4.2c5.2 13.1 11 28.6 13.1 35.3 1.5 5 .4 8.7-6.8 23.1-4.6 9-6.1 11.1-7 9.6-.6-1-1.4-8.5-2.2-21.8-.4-5.5-.8-12-1-14.5-.3-2.5-.7-11.3-1-19.5-.4-8.3-.8-17.1-1-19.8-.2-2.6 0-4.7.3-4.7.4 0 2.9 5.5 5.6 12.3zm-8.9-5c.4 2.5.2 3.7-.6 3.7-1.2 0-.9 7.8.6 15.2.5 2.8.2 3.1-5.9 4-3.5.5-2.8 2.7 1.2 3.7 2.6.7 4.3 1.9 5 3.6 1.3 2.8 1.6 8.8.6 9.8-.8.8-4.7-1.2-5.7-2.9-1.2-2.1-2.6-1.7-2.2.5 1 5.1-2.7 8.5-3.9 3.6-.4-1.7-1.6-2.7-3.9-3.3-4.4-1.2-4.9-.7-3.1 3.6 2.5 5.8 2.7 6.8 1 8.5-2.2 2.2-2 2.4 1.3 1.9 2.6-.3 3.3.1 5.6 3.8 1.5 2.3 3.6 4.5 4.6 4.7 1.1.3 1.8 1.1 1.6 1.7-.6 1.7 2 8.3 5.4 13.9 1.6 2.7 2.9 5.1 2.6 5.3-.2.2-3-.1-6.3-.6-8.9-1.4-15-2-35.9-3.6-16.5-1.2-20.5-2-20.5-4 0-4.1 12.7-34.1 15.4-36.3 1-.8 1.3-2.2 1-4.1-.7-3 1.9-7.9 3.9-7.6.7.1 2.7.8 4.5 1.5 3.1 1.3 3.6 2.1 3.3 4.9-.3 1.7 4.1 3.2 8 2.5 1.8-.2 4.8-1.5 6.8-2.8 3.5-2.5 5.7-2.4 4.7.2-.5 1.1-.1 1.3 1.7.7 1.2-.4 2.8-.7 3.5-.7 2.3 0 1.2-1.4-2.7-3.2-2.2-1-4.2-2.4-4.5-3.1-.3-.8.6-3.7 1.9-6.6 1.4-2.9 2.5-6.1 2.5-7.1s1.1-4 2.5-6.7 2.5-5.8 2.5-6.8.3-2.2.7-2.6c1.1-1.1 2.2.7 2.8 4.7zm3.5 44.9c0 .4-1 .6-2.2.4-1.3-.3-2.6-.5-3-.5-.5-.1-.8-1-.8-2.2 0-2 .1-2 3-.2 1.7.9 3 2.1 3 2.5zm41 7.3c0 .9-.7 1.8-1.5 2.1-2.4 1-1.8 2.7 2 5.7 1.9 1.5 3.5 3.6 3.5 4.7s-1.8 3.8-4.1 6.2l-4 4.3 2.1 1.7c2.2 1.8 2.1 1.8-3.4 1.8-3.1 0-5.6.3-5.6.6s.9 1.3 2 2.2c2.7 2.4 6.9 11.2 13.4 29 3.4 9.1 5.3 15.8 4.9 16.6-.4.7-3.6 4.4-7 8.2-19.9 22.4-18.7 20.3-17.8 31.6.3 5.1.8 9.5 1 9.8.1.3.6 3 .9 6.1.4 3.1.9 6.7 1.1 8 .3 1.3.7 4.1 1 6.4.3 2.2.8 5.1 1.1 6.5.2 1.4.6 3.8.8 5.5 1.1 8 1.6 12.4 2.1 16.5.3 2.5 1.4 8.2 2.5 12.8 2.5 10.6 2.6 12.6.2 12-1.8-.5-1.8-.4-.1 2.9 2.8 5.5.9 15-2.7 13.6-1-.4-1.2 0-.8 1.1.7 1.8 3.9 2.2 4.9.6.3-.6 1-1 1.6-1 1.4 0 1.1 3.6-.5 4.9-1.1.9-2.1.6-4.7-1.6-4.7-3.9-7.6-7.3-9.1-10.6-.7-1.5-2.1-2.7-3-2.7-1 0-3.2-1.6-4.9-3.5-1.8-1.9-3.8-3.5-4.5-3.5-2.9 0-12.4-10.8-9.7-11.1.5 0-.2-.4-1.4-.9-2-.8-2.3-1.7-2.4-6.7-.1-9.6.2-25.3.6-33.3.2-4.1.6-14.7 1-23.5 1.1-27.5 2.3-53.8 3-62 .2-2.8.7-8.6 1-13 .3-4.4.8-8.7 1-9.5.2-.8.6-3.6.9-6.2.7-6.3 2.9-11.4 5.6-12.8 1.4-.7 2-1.9 1.8-3.3-.3-2.6 1-5 2.3-4.2.5.4.7-.4.5-1.7-.4-2.6 1.4-6.8 3.9-8.8 2.7-2.2 2.7-.4 0 3.6-2.9 4.3-1.7 5.9 1.9 2.5 1.2-1.2 2.6-2.1 3-2.1 1.3 0-.5 4.3-3.5 8.6-2.8 4.1-5.3 9.4-4.4 9.4.2 0 2.3-2.5 4.5-5.5 4.5-6.1 7.6-7.4 6.5-2.6-.5 2.3-.2 2.9 1.4 3.4 1.3.3 2.1 1.3 2.1 2.6 0 1.2.4 2.1.9 2.1 2 0 2.3-2.3 1-6.2-1.3-3.9-1.2-4.1 1.5-6.3 2.4-1.9 2.5-2.3 1.2-3.5-2-1.6-2-4 0-6.8 1.7-2.5 4.4-2.9 4.4-.7zm22 19c1.2 3.6.6 9-1.1 10.1-.7.4-.8-.7-.4-3 .5-2.6.3-4.3-.9-6.1-1.6-2.5-1.4-4.5.4-4.5.5 0 1.4 1.6 2 3.5zm113.3 9.7c-.2.4.5 1.3 1.7 2 1.1.7 2 2.2 2 3.3 0 1.1 1.2 3.8 2.5 6 3.1 5 3.2 8 .3 9.9-1.3.8-6.8 3.4-12.3 5.6-11.5 4.8-14 6.5-8 5.6 2.2-.3 6.1-.9 8.7-1.2 3.4-.5 4.8-1.1 5.1-2.5.3-1.1 1.4-1.9 2.6-1.9 1.5 0 1.9.4 1.4 1.7-.6 1.6-.4 1.6 1.5-.1 1.2-1.1 2.5-1.6 2.9-1.3.3.4.7 7.1.7 15 .1 16.2-1 21.6-5.7 27.2-4 4.9-17.9 13.9-18.9 12.2-1.3-2.3-3.9-23.2-4.3-34.3-.4-8.2-.1-12.6 1.1-16.5 1.9-6.4 12.5-28.5 15.6-32.4 2-2.6 2.2-2.6 2.9-.9.3 1 .5 2.2.2 2.6zM135 219c-3 2.2-6 3.2-6 1.9 0-1 5.6-3.8 7.5-3.8.6 0-.1.8-1.5 1.9zm26.5.4c2.8.3 8.6.9 13 1.2 4.4.4 8.7.8 9.5 1 .8.1 2.9.3 4.5.3l3.1.1-.1 27v26.9l-12.2 14.8c-6.7 8.2-13.6 16.1-15.3 17.8l-3.2 3-2.1-2.7c-7.6-9.4-26-42.6-29.1-52.3-2.9-9-2.5-13.5 1-13.5 1.3 0 1.3-.3 0-2.3-7.6-11.6 4.1-24.7 20.2-22.6 3.1.4 8 1 10.7 1.3zm80.5.1c0 .7 1.4 1.8 3 2.4 4.5 1.5 3.8 4.6-1.5 6.5-1.8.7-1.8.5.2-1.6l2.2-2.4-2.5-.2c-3.5-.3-6.1 1.3-6.8 4.3-1.1 4.3-3.1 3-2.7-1.8.2-1-.5-1.7-1.4-1.7-1 0-1.5-.7-1.3-1.8.3-1.3 1.3-1.7 4.3-1.6l3.9.2-2.2-1.8c-1.4-1.2-1.8-2-1-2.2 2.1-.7 5.8.4 5.8 1.7zm10.4 12.2c-1.3 3.8-2.4 6.9-2.4 7 0 .2-.4.3-1 .3-3.2 0 2.4-13.7 5.7-14 .1 0-.9 3-2.3 6.7zm-7.4.3c2.5 1.6-.6 3.4-5.2 3.1-3.3-.2-.9-3.1 3.2-4 .3 0 1.2.4 2 .9zm-3.8 8.8c-1.7.9-3.5 1.2-3.9.8-1.3-1.2 2.6-3.4 4.9-2.8 2 .5 1.9.7-1 2zM330 255c0 4-5.9 5.6-6.1 1.7-.5-7.3-.5-9.3-.1-10 .5-1.1 6.1 6.4 6.2 8.3zm12.8 3.7c-.2 1-1 1.7-1.6 1.5-2.2-.4-2.7 3-.6 4.5 1.8 1.4 1.8 1.4-.7 1.1-1.5-.1-3.8.4-5.3 1.1-2.8 1.6-3.6 1.3-4-1.5-.2-1.5-1.1-1.8-4.2-1.6-3.6.2-3.2-.1 4.1-3.3 9.1-3.9 12.9-4.5 12.3-1.8zm-79.3 6.4c4 3.9 7.5 7.9 7.8 8.9.5 1.9-11.3 18.6-19.6 27.5-5.3 5.8-5.4 5.5-3.7-7 .6-3.9 1.3-8.8 1.6-11 .3-2.2.7-4.7.9-5.5.2-.8.7-3.1 1-5 1.6-9.9 2.9-15 3.7-15 .6 0 4.3 3.2 8.3 7.1zm-13.5 1c-.6 3-1.3 7.2-1.6 9.4-1.1 9.6-2.7 16.7-4 18-.9.9-1.3 3.4-1.2 7.2.2 7.4-.7 10.3-3.4 10.3-2.3 0-12.8-10-12.8-12.2 0-.9-.6-3.1-1.4-5-1.3-3.1-1.3-3.7.3-6.4 1-1.6 5.8-6.8 10.6-11.4 4.8-4.7 9.8-10.2 11.2-12.3 1.3-2.2 2.6-3.7 2.9-3.5.2.3-.1 2.9-.6 5.9zm-110.2 17.6c18.6 32.8 20.6 38.4 22.8 62.3.7 7.3 1.6 7.3-7.6-.1-2.5-1.9-7.4-5-11-6.9-3.6-1.8-7-3.8-7.7-4.4-1.2-1.1-1.8-4.9-2.9-17.6-.3-4.1-.8-8.3-1-9.4-.2-1-.6-5.3-.9-9.5-.4-4.2-.8-8.6-1-9.9-.2-1.2-.7-6.4-1.1-11.5-.3-5-.8-9.5-1.1-10-.2-.4 0-.7.5-.7s5.5 8 11 17.7zM330.5 269c.4.6 3.1 1 6.1.9 3-.1 5.9.2 6.4.7 1.3 1.3 2.2 11.7 1.1 13.3-.6 1-1.3 1-2.9.2-3.1-1.7-3.7-4.7-1.3-7.7 1.1-1.5 1.8-3.1 1.4-3.7-.4-.7-1.2-.2-2.1 1.1-1.3 2.1-1.6 2.1-2.7.5-1.1-1.5-1.4-1.4-2.8 1.3-1.2 2.2-1.6 2.4-1.7 1 0-1.3-.5-1.7-2-1.3-1.5.4-2 0-2-1.3 0-1.8-2.3-3.4-3.4-2.3-1.2 1.2-.5 5.1 1.2 7.4 1.2 1.4 3.1 2.3 5.3 2.4 3 .1 3.4.5 3.7 3.2.2 1.8 1 3.7 1.9 4.5 1.4 1.1 1.5.9.8-2.1l-.7-3.4 3.3 2.1c4.1 2.5 4.6 3.8 2 4.5-1.2.3-2.1 1.5-2.3 3.3-.2 1.5-.9 3-1.7 3.2-1 .3-1.2 0-.8-1.1.4-1.2-1.1-2.4-6.1-4.9-5.8-2.9-6.7-3.7-7-6.3-.2-1.7-1-3.4-1.8-3.8-1.9-1.1-1.7-6.7.4-9.3 2.5-3.1 6.5-4.3 7.7-2.4zm-51.1 23.4c2.3 11.3 2.2 11.5-6.3 14-7.9 2.3-9.4 2.2-8.8-1l.4-2.5-2.6 2.5c-1.4 1.4-4.3 3.2-6.3 4-4.2 1.8-7.3 2.1-4.5.5 1.1-.7 1.6-1.7 1.2-2.9-.7-2.3 3.7-6 6.4-5.3 1.6.4 1.9.1 1.4-1.5-.7-2.8 4-11.2 9.5-17 4.3-4.7 4.4-4.7 6-2.6 1 1.1 2.6 6.4 3.6 11.8zm37.9-4.4c-.6 2.3-3 1.6-3.9-1.2-.8-2.7 1.6-4.4 3.2-2.2.7.8 1 2.3.7 3.4zM189 292.8c0 3.7-1.7 5.2-5.6 5.2-2.7 0-3.1.3-2.7 2 .5 1.9-.9 2.6-3.9 2.1-1.6-.2-.7 1.9 1.4 3.3 3.1 2.2 5.6 2 6-.5.2-1.2 1.4-2.8 2.8-3.6l2.5-1.5-2.2 2c-2.9 2.5-2.9 3.2-.1 3.2 2 0 2.1.1.3 2-1.7 1.9-1.7 2.7-.6 10.3.7 4.5 1 10.2.8 12.7-.3 2.5-.6 5.4-.7 6.5-.1 1.7-.6 1.4-3.5-1.9-3.7-4.2-4.1-4.2-2.5-.2 1.1 3 .4 3.2-2.9 1-1.8-1.3-2.5-1.4-3.1-.4-.9 1.4-10 3.2-10 2 0-.4.9-1 2-1.3 1.1-.3 2-1.1 2-1.8s-.3-.9-.6-.6c-.4.3-1.5.2-2.5-.4-2.8-1.4-2.6-9.7.2-13.3 1.1-1.4 1.9-3.2 1.6-3.9-.2-.6 0-2 .5-3 .7-1.5 2-1.8 6.1-1.7 8.2.3 8.5.2 5.8-2-1.3-1.1-3.1-2-4.2-2-1 0-2.1-.4-2.4-1-1.1-1.8 2.7-8 7.3-12 5.4-4.8 8.2-5.2 8.2-1.2zm192.4 1.9c2 2 4.8 6.1 6.3 8.9l2.7 5.3-2.4 2.1c-3.8 3.3-25 17.5-29.7 19.9-3.5 1.7-4.4 2.8-5.3 6.4-2.2 8.4-3.5 12.1-4.6 12.4-2.4.8-2.2-2.9.7-11.3 3.1-8.8 3.2-10.2.8-17.9-1.7-5.8-.5-10.6 3.9-15.4 3.9-4.3 19.3-14.1 22.2-14.1 1 0 3.4 1.7 5.4 3.7zm-157 1.7c.9 1.3.7 2-.8 3.2-1.1.8-2.6 1.4-3.3 1.4-1.6 0-1.7-4.2-.1-5.8 1.5-1.5 2.8-1.1 4.2 1.2zm92.6 1.3c0 2.4-.3 3.3-.9 2.5-.7-1.2-.4-6.2.5-6.2.2 0 .4 1.7.4 3.7zm13.4-.1c.3.9.6 2.3.6 3.2 0 2.1-1.5.5-2.5-2.6-.7-2.5.9-3.1 1.9-.6zm13.2 8.7c1.1 3.1 1.7 7.7 1.6 11.4-.1 4.7.3 6.5 1.4 7.1 1 .6 1.4 2 1.2 4.3-.3 3.2-.5 3.4-3.8 3.4-2.9 0-3.6.4-3.8 2.2-.3 2.2-3.2 3.3-3.2 1.3 0-1.9-2.4-1-4.7 1.7-1.8 2.2-2.2 2.4-1.7.8 1.4-4.8 2.7-7.5 3.6-7.5.6 0 .8-2 .6-4.5-.3-3.8 0-4.5 1.4-4.5 1.2 0 1.8-.8 1.9-2.3 0-1.2.2-3.1.4-4.2s.6-3.8 1-6l.6-3.9-2.4 3.4c-1.3 1.9-3 3.5-3.8 3.4-1.1-.1-1.4.7-1.1 2.7.5 3.7-2.6 12.4-5.4 15-3.1 2.9-7.8 1.5-8.2-2.4-.2-1.5-.9-2.7-1.6-2.7-2.1 0-5.3-6.7-4-8.7 1.1-1.8 26.6-16.3 27.6-15.7.3.2 1.4 2.8 2.4 5.7zm-114.2 1.8c1.9 1.1 3.9 3.3 4.5 5 .8 2.4 1.5 2.9 2.9 2.5 1.1-.4 2.4 0 3.2.9 1 1.2.9 1.6-.6 2.1-1.1.3-3 1.1-4.4 1.7-2.4 1.1-2.3 1.2 1.7 1.5 2.3.2 4.6.8 5.1 1.5 2.3 2.8 11 38.6 12.7 52.2.4 2.7.8 5.7 1 6.5.3.8.1 2.1-.4 2.9-.6.9-.1 2.6 1.5 4.9 2.4 3.5 2.6 4.2 2.6 9.7.1 7.6-.3 8.6-4.4 13.1-7.7 8.3-15.7 10.5-17.8 4.8-2.5-6.5-8.1-44.1-8.4-56.4-.2-6.2-.5-7.5-1.9-7.8-1.3-.3-1.7-1.4-1.7-4.7 0-2.4.4-5.5 1-7 .5-1.4.6-2.4.1-2.1-1.4.9-3.3-2.1-3.6-5.6-.1-1.8-.5-5.2-.9-7.5-1-5.5-.2-7.8 3.4-9.3 1.6-.6 3.7-2.1 4.7-3.2 1.7-1.9 1.7-2-.1-3.4-2.3-1.7-3.9-.8-3.3 1.7.3 1.2 0 1.9-.9 1.9-.8 0-1.5-.8-1.6-1.8 0-.9-.2-2.4-.3-3.2-.4-3.6 1-3.8 5.9-.9zm52.4 1.1c.9 1.2 2.5 10.7 3.7 22.3.3 2.7.7 7.5 1.1 10.5.3 3 .7 6.8.9 8.5.2 1.6.7 6.6 1.1 11 .3 4.4.8 9.1.9 10.5.2 1.4.6 7.8 1 14.3.9 15.4.5 15.9-10.5 12.7-4.7-1.4-7.3-1.3-6.7.2.2.7-.2 2.6-1 4.1-1.1 2.3-1.2 3.1-.2 4.3 1.7 2.1 2.6 22.4 1 22.4-3.6 0-19.1-10.1-19.1-12.4 0-2.8 11.8-9.9 14.8-8.9.7.3 1-.1.6-1-.3-.8.2-2.9 1.1-4.6 1.5-3 1.5-3.1-.6-3.1-1.1 0-3.4 1.3-5.1 3-3.6 3.6-4 3.7-2.8.6.5-1.3.7-2.6.5-2.7-.2-.2-.6-2.7-.9-5.4-.5-4.7-.8-6.5-2.1-12.5-.3-1.4-.7-3.6-1-5-.2-1.4-1.4-6.3-2.5-11-6-25.2-11-48.4-10.7-49.3.4-1.2 28.9-9.6 32.8-9.6 1.5-.1 3.1.5 3.7 1.1zm109.2 6.7c0 .4-1.4 2.6-3.1 4.9-3 4.1-3 4.2-.9 4.2 1.5 0 2 .5 1.7 1.4-1.1 2.8-2.5 12.6-2.6 18-.1 2.7-.2 2.8-1.8 1.3-1.7-1.5-1.8-1.2-1.8 5.6 0 8.2-.8 14.6-3.5 28.2-.6 2.7-1.2 6.1-1.5 7.4-1.3 6.8-2.5 8.8-6.3 9.9-4.8 1.5-11.5 3.2-12.4 3.2-.5 0-.8-14.3-.8-31.9v-31.9l4.3-3.4c6.8-5.4 9.9-7.2 14.1-7.8 2.2-.3 4.1-1.1 4.4-1.8.2-.8-.2-1-1.4-.5-1.2.4-1.5.2-1.2-.8.2-.8 1.9-1.9 3.6-2.5 1.8-.5 3.9-2 4.7-3.2 1.4-1.9 4.5-2.1 4.5-.3zm-254.2 21.7c.9.7 1.7 1.8 1.7 2.6s1 1.2 2.4 1c1.3-.1 2.9.5 3.6 1.5.7.9 1.9 1.4 2.7 1 1.2-.4 1.4 0 1.1 1.3-.3 1 .2 2.9 1.1 4.2 1.5 2.3 1.5 2.4-1.1 2.3-1.4 0-2.8.6-3.1 1.4-.3 1 0 1.2 1.2.8 2.8-1.1 3.2 2.3.7 6.5-1.7 2.9-1.9 4.3-1.1 5.7 1.7 3.2 1.1 3.6-1.6 1-3.9-3.7-20.6-28.8-19.9-30 .9-1.3 10.2-.9 12.3.7zM341 352.1c-6.4 15-9.5 20.8-11.7 22.2-.7.4-1.3 2.3-1.3 4.2 0 3.8-2.5 11.2-7.7 22.5-4 8.7-4.1 8.9-5.2 7.1-1.6-2.5-1.9 1.4-.5 4.9 1.6 3.7 2.4 3.3 4.4-2 .7-1.9 4.2-10 7.8-18 3.5-8 7.7-18 9.3-22.3 3.3-9.2 7.9-17.9 9.7-18.5.8-.2 1.2.9 1.2 3.7 0 4.7-1.8 9.1-3.7 9.1-.9 0-1.3 1.4-1.3 4.2 0 5.1-2.3 14-4.3 17.2-.9 1.3-2.1 4.3-2.7 6.7-2.4 8.8-16.5 26.8-19.9 25.3-.9-.4-2.7-.6-4.1-.6-2.2.1-2.3 0-.7-.9 2.4-1.4 2.1-2.7-.5-3.1-1.5-.2-2.4-1.1-2.6-2.6-.2-1.2-.8-2.2-1.3-2.2-1.6 0-3.9-6.5-3.9-10.8 0-4 1.4-6.2 4-6.2 1 0 1.6-1.1 1.7-3.3.1-1.8 2.5-8.9 5.3-15.7 2.9-6.8 5.3-14 5.4-16.1 0-2.2.6-3.9 1.1-3.9.6 0 3.8-2.3 7-5.1 6-5 19.7-12.4 20.3-10.9.2.4-2.5 7.2-5.8 15.1zm-217.4-7.3c0 3.3.8 4.7 2.7 4.7.7 0 1.4 1.6 1.7 3.5.3 1.9 1.1 3.4 1.7 3.3 1.3-.3 7.9 6.9 10.7 11.7l1.8 3.2-3.3-.6c-11.2-1.9-19.9-3.5-22.1-4.2-2.9-.9-2.7-5.6.4-12.4 1.1-2.5 2-5.5 1.9-6.8 0-1.4.5-2.2 1.5-2.2 1.2 0 1.5-.6 1.1-2.1-.3-1.3-.1-1.9.6-1.6.7.2 1.2 1.8 1.3 3.5zm47.4.9c0 1.4-.9 1.7-2.6.5-1.4-.9-2.4-3.8-1.7-4.6.9-.8 4.3 2.4 4.3 4.1zm9.4-3.1c2 1.9 2 2.5.1 1.8-.8-.4-2.2 0-3.1.7-1.3 1-1.7 1-2.4-.1-1-1.6.5-4 2.6-4 .7 0 2 .7 2.8 1.6zm3.1 32.7c22.7 22.5 27.5 28 27.5 31.7 0 1.7.4 2 2 1.5 1.9-.6 2-.3 1.4 3.4-.6 3.8-.4 4.2 2.5 5.8 1.7 1 3.3 2.4 3.6 3.2 1 2.6-.7 7.9-3.7 11.5-3.2 4-5.4 4.6-6.2 1.8-.7-2-24.9-26.1-44.5-44.2-17.2-15.8-18.1-16.8-18.1-19 0-1.8 5.6-20.5 6.7-22.3.7-1.1 2.4.5 28.8 26.6zM354.1 354c-.8 2.2-1 2.3-1.6.7-.4-1-.2-3 .6-4.5 1.2-2.5 1.3-2.5 1.6-.7.2 1.2 0 3.2-.6 4.5zm-1.5 11.4c1 .8 1.6 1.7 1.2 2.1-.8.8-4.8-1.3-4.8-2.5 0-1.4 1.3-1.2 3.6.4zm-223.1 6.2c8.4 1.6 15.8 4.4 16.9 6.3.4.6 1.5 1.1 2.4 1.1 1.3 0 1.7 1 1.8 4.8.1 2.6 1.5 8.7 3.3 13.7 3.5 10.2 3.8 12.7 1.4 15.1-1.6 1.6-1.6 1.6.4 1 1.5-.5 2.8-.1 4.1 1.2 2.6 2.6 6.3 12.6 6.7 17.9.2 2.8 1.2 5.3 2.8 7.3 2.9 3.4 7 13.7 6.1 15.1-.4.6-1.4.3-2.6-.7-2.6-2.5-10.4-14.3-11.3-17.4-.4-1.4-2.7-4.6-5-7.2-8.7-9.7-29.5-42.8-29.5-47.1 0-1-.4-1.6-.9-1.2-1.3.8-8.1-5.3-9.2-8.3-1.2-3-.3-4.3 2.4-3.7 1.2.3 5.8 1.2 10.2 2.1zM354 374c.9 1.6.8 2.2-.5 2.6-.8.3-2.2.3-3 0-1.3-.4-1.4-1-.5-2.6.6-1.1 1.5-2 2-2s1.4.9 2 2zm-7 4c1.7 4.1.6 5-1.4 1.1-1.8-3.5-1.9-4.1-.7-4.1.5 0 1.4 1.4 2.1 3zm-182.1 14.6c.3.2-.8 1.7-2.3 3.3-3.1 3.2-3 5.6.4 8.6 2 1.8 2 1.8 1.4-1.2-.5-2.5-.2-3.3 1.4-4.2 1.6-.8 2.9-.6 6.3 1.3 2.4 1.2 4.6 3.1 4.8 4.1.2 1.3-.1 1.6-1.3 1.2-1-.4-2 .1-2.6 1.3-.6 1.1-.8 2-.4 2s.5.3.2.6-1.5 0-2.5-.7c-1.5-.9-2.6-.8-5.1.5-2.9 1.5-3.2 1.5-3.2.1 0-.9-1.1-3.7-2.4-6.3-3.2-6.4-4.9-12-4.2-13.8.5-1.2 1.2-1.1 4.8.7 2.4 1.2 4.5 2.3 4.7 2.5zm211.6 9.9c.8 1.1 1.6 4 2 6.5 1.1 7.8-2 10-22.1 15.9-9.4 2.8-10.5 2.7-14.1-1.2-3.1-3.1-10.6-14.7-10-15.3.5-.5 17-3.9 23.7-5 1.9-.3 6.2-1.1 9.5-1.8 7.8-1.7 9.5-1.6 11 .9zm-87.3 4.2c9.6 5.8 14.8 9.9 14.8 11.7 0 .5 1.2 2.3 2.8 3.9 1.5 1.7 2.1 2.7 1.5 2.3-.9-.5-1.1-.2-.7.8.3.8 1.2 1.7 2 2 1.8.7 1.8 4-.1 5.6-1.5 1.2-2.1 4-.9 4 .3 0 1.4-1 2.4-2.2l1.8-2.3 2.1 2.5c1.7 2.1 2.2 2.3 3.1 1 .7-1.1 1-.5 1 2.5 0 2.4 1.4 7 3.4 11.4 3.6 7.8 3.6 8.3 0 15.4-1 1.7-2.8 4.9-4.2 7l-2.5 3.8-2.5-2.3c-2.7-2.5-35.2-39.4-35.2-40 0-.7 16.6-8.8 19.1-9.3 1.7-.3 3.1-1.5 3.9-3.5.7-1.7 1-3.3.7-3.6-.6-.7-6.2 2.2-15.2 8-3.9 2.5-7.4 4.1-7.9 3.6-.4-.4-.9-6.2-.9-12.7-.2-10.8.4-15.3 1.8-15.3.2 0 4.6 2.6 9.7 5.7zm-111.8 3.9c1.2.5 1.6 2 1.6 6 0 4.1.4 5.4 1.5 5.4 2.4 0 1.7 2.9-1 4.2-2.8 1.3-2.7 1-3 5.9-.3 6.6-2.7 7.6-3.9 1.7-.3-1.8-2.2-6.6-4.2-10.5-3.9-8-4.1-10.6-.6-11.1 1.9-.3 2.3.1 2.2 2-.4 4.6 0 5.8 2 5.8 1.7 0 2-.7 2-4.3 0-5.4.6-6.2 3.4-5.1zm42.6 1.8c0 2.4-1.6 4.3-2.7 3.2-.8-.8.6-5.6 1.7-5.6.6 0 1 1.1 1 2.4zm114.2 8c.9 2.3.9 3.1 0 3.4-2 .6-1.4 1.9 1.2 2.6 2.5.6 4.4 5.4 3.1 7.6-1.2 2-2.9.4-3-2.6 0-4-2.6-3.8-3.7.3-.9 3.6-2.8 4.2-5.2 1.7-1.7-1.7-2.1-2.8-.7-2 .5.3 1.4 0 2-.8 1.6-1.9-1.1-4-4.3-3.4-1.4.3-3.1.1-3.8-.3-2.4-1.5 1.7-4.3 6.4-4.4 2.4 0 4.5-.5 4.7-1 .5-1.3-4-3.6-5.6-3-.7.2-1.3 0-1.3-.5 0-.6.6-1 1.3-1 2.4 0 3.7-2.1 2.6-4.4-.6-1.2.3-.5 2 1.4s3.6 4.8 4.3 6.4zm-147.8-7.8c4.3 1.6-.6 6.9-4.9 5.4-1.7-.6-1.5-.8 1.3-1.4 3.7-.9 3.9-1.4 1.5-3.2-1.9-1.4-.6-1.8 2.1-.8zm8.6 8.4c.6 1.1.8 3.1.4 4.4-.5 2.2-.2 2.6 3.7 3.6 5.6 1.5 8.9 3.8 8.9 6.1s-.8 2.3-3.4.4c-2.3-1.7-8.7-2-10.3-.4-.7.7-2.1.4-4.7-1.2-2.2-1.3-4.6-1.9-6.2-1.6-4.3.8-2.1-1.6 4.4-4.8 3.4-1.7 6.2-3.6 6.2-4.4 0-.8-.7-1.1-1.9-.8-1.1.3-2.2-.1-2.5-.8-1.1-3 3.8-3.5 5.4-.5zm51.6 3.4c3.1.8 5.8 7.1 6 14.1.1 3.4.6 6.1 1.3 6.3.6.2 1.1 1.4 1.1 2.6 0 1.2.7 3.2 1.6 4.5 1.6 2.2 1.6 2.3-.4 1.7-1.3-.5-2.4-.2-2.9.9-1.9 3.3-5.5 2.7-9.7-1.8-4.8-5-16-25.1-15.3-27.2.8-1.9 12-2.6 18.3-1.1zm10.7 1.6c.3 1.3 2.2 2.7 4.7 3.7 4.2 1.7 4.6 2.7 2.6 7.3-.4.9.1 2.4.9 3.5 1.5 1.9 1.6 1.9 1.3-.5-.2-1.7.2-2.6 1.5-2.8 1.3-.3 1.7.3 1.7 2.7 0 3.3 3 5.7 5.7 4.6 1.3-.5 1.1-1.1-1.2-3.5-4.9-5.1-.7-3.3 5.2 2.2 8.2 7.8 18 19.5 18.5 22.3.6 3 .1 3.8-3.7 5.8l-3 1.6 3.2.1c4.2 0 6.3-.9 6.3-2.8 0-1.3.3-1.2 2 .3 1.1 1 3 2.3 4.1 2.9 3.6 1.8 1.7 3.1-4.1 3-14.7-.4-14-.2-15-2.9-1.2-3-8.1-8.1-13.1-9.7-3.5-1-3.7-1.3-3.2-3.9.4-2.2.2-2.9-1-2.9-2.1 0-2.9 1.4-3.1 6-.2 4.8-1.1 5.8-2.6 3.1-1.5-2.9-.3-8.8 2.4-11.2 1.8-1.7 1.9-2.1.6-2.9-2.1-1.4-4.8-1.2-5.3.2-.6 1.8-2.4 0-3.2-3.3-.4-1.7-.1-3 .9-3.8 3.3-2.8.9-12.5-3.8-15.6-2.7-1.8-3.6-5.5-1.2-5.5.7 0 1.6.9 1.9 2zm114.5 1.2c-.2 1.3-.9 2.3-1.7 2.3-.8 0-1.5 1.2-1.7 2.9-.2 1.6-2.4 5.6-4.9 8.8-2.5 3.3-4.8 6.5-5.1 7.2-.7 1.8-4.2 3.3-11.6 5-9.8 2.2-13.6 2.7-14.3 1.6-.9-1.4 4.9-11.9 10.4-18.7 4.7-5.8 8.6-7.8 10.2-5.2.5.9 1.5.5 3.6-1.8 2.2-2.4 3.5-3 5.5-2.6 1.4.3 3.4 0 4.5-.6 3.2-1.9 5.5-1.4 5.1 1.1zm-142.3 8c4.9 10 5.8 13.5 2.4 9.7l-2-2.4.5 3.4c.4 1.9.8 3.6 1 3.9.4.4 3.2 1 5.2 1.1.7.1 1.4.8 1.7 1.5.4 1 .1 1.3-.9.9-1.8-.7-6.4 2.3-6.4 4.1 0 1.1 1 1.3 4 .9 4.3-.6 7.2.9 6.3 3.3-.3.8-1.8 1.4-3.3 1.4-1.5 0-3.4.8-4.1 1.7-1.3 1.5-1.2 1.6.8 1.1 1.3-.4 2.6-.2 2.9.3 1 1.7 1.6 10.8 1 14.4-1.3 6.8-4.7 4.9-23.9-12.8l-10.5-9.9 10-15.9c5.5-8.7 10.2-15.9 10.5-15.9.2 0 2.4 4.1 4.8 9.2zm29.5 1.1c0 2.3-1.6 5.5-2.3 4.7-.2-.3-.2-2.2.1-4.2.4-3.9 2.2-4.3 2.2-.5zm-56 4.2c0 1.5-1.8 3-2.7 2.2-.2-.3-.2-1.5.2-2.6.7-2.3 2.5-1.9 2.5.4zm-11.4 4.3c-1.4 1.4-1.6 1.4-1.6.1 0-2 2.3-4.4 2.9-2.8.2.6-.4 1.8-1.3 2.7zM259 461c1.1 1.1 2 2.6 2.1 3.2.2 3.2 1 9.4 1.4 10.6.7 1.9-1.6 6.2-3.4 6.4h-3.4c-1-.1-2.6.5-3.4 1.4-1 1-2.6 1.4-4.2 1.1-1.8-.4-3.2.2-4.9 2-2.9 3.2-3.6 2.5-1.8-1.8.8-2.2 1.2-5.7.9-9.8-.3-5.1-.1-6.6 1.1-7.3.9-.5 1.6-2.2 1.6-3.8 0-3.3.9-3.8 7.3-3.9 3.4-.1 5.2.4 6.7 1.9zm18.3 9.1c-.8.8-1.6.8-3 0-1.6-.9-1.4-1 1.2-1.1 2.1 0 2.6.3 1.8 1.1z"/></svg>