<?xml version="1.0" encoding="utf-8"?>
<!-- Generator: Adobe Illustrator 22.0.1, SVG Export Plug-In . SVG Version: 6.00 Build 0)  -->
<svg version="1.1" id="Слой_2__x28_копия_x29_"
	 xmlns="http://www.w3.org/2000/svg" xmlns:xlink="http://www.w3.org/1999/xlink" x="0px" y="0px" viewBox="0 0 16 16"
	 enable-background="new 0 0 16 16" xml:space="preserve">
<g>
	<polygon fill="#151515" points="6,9.5 4.9,11.4 7.2,13.4 	"/>
	<path fill="#444444" d="M8,9.8L7,9.2l1,3.3l0.3,1.1c0,0,0,0.1,0,0.1l2.7-2.2L8,9.8z"/>
	<g>
		<path fill="none" d="M8.1,1.5C8.1,1.5,8.1,1.5,8.1,1.5C8.1,1.5,8.1,1.5,8.1,1.5C8,1.5,8,1.5,8,1.5c0,0-0.1,0-0.1,0c0,0,0,0,0,0
			c0,0,0,0,0,0c0,0,0,0,0,0L5.3,5.8L2,11.4c0,0.1,0,0.1,0,0.2c0,0,0,0,0,0c0,0,0,0,0,0c0,0,0,0,0,0c0,0,0,0,0,0l5.7,2.7c0,0,0,0,0,0
			c0,0,0,0,0.1,0c0,0,0,0,0,0s0,0,0,0c0,0,0,0,0,0c0,0,0,0,0.1,0c0,0,0,0,0,0l0,0c0,0,0,0,0,0l0,0l5.8-2.7c0,0,0,0,0,0c0,0,0,0,0,0
			c0.1-0.1,0.1-0.2,0.1-0.3l-3.3-5.6L8.1,1.5C8.1,1.6,8.1,1.6,8.1,1.5z"/>
		<path fill="#151515" d="M8,14.5C8,14.5,8,14.5,8,14.5C8,14.5,8,14.5,8,14.5C7.9,14.5,7.9,14.5,8,14.5c-0.1,0-0.1,0-0.1,0l-5.7-2.7
			c0,0,0,0,0,0c0,0,0,0,0,0c0,0,0,0,0,0c0,0,0,0,0,0c0-0.1,0-0.1,0-0.2l3.3-5.6L1,3.7v8.6l7,3.5L8,14.5C8,14.5,8,14.5,8,14.5z"/>
		<path fill="#444444" d="M10.7,5.9l3.3,5.6c0.1,0.1,0,0.2-0.1,0.3c0,0,0,0,0,0c0,0,0,0,0,0l-5.8,2.7l0,0c0,0,0,0,0,0l0,0
			c0,0,0,0,0,0c0,0,0,0-0.1,0v1.3l7-3.5V3.7L10.7,5.9z"/>
		<path fill="#888888" d="M7.8,1.6C7.8,1.6,7.8,1.6,7.8,1.6C7.9,1.5,7.9,1.5,7.8,1.6c0.1-0.1,0.1-0.1,0.1-0.1c0,0,0,0,0.1,0
			c0,0,0,0,0.1,0c0,0,0,0,0,0c0,0,0,0,0,0c0,0,0,0,0,0l2.5,4.3L15,3.7L8,0.2L1,3.7l4.3,2.1L7.8,1.6z"/>
	</g>
	<polygon fill="#888888" points="8.5,7 8,6.1 7.5,6.9 6.5,8.6 8,8.6 9.4,8.6 	"/>
	<path fill="#FFFFFF" d="M8.1,1.5C8.1,1.5,8.1,1.5,8.1,1.5C8.1,1.5,8.1,1.5,8.1,1.5C8,1.5,8,1.5,8,1.5c0,0-0.1,0-0.1,0c0,0,0,0,0,0
		c0,0,0,0,0,0c0,0,0,0,0,0L5.3,5.8L2,11.4c0,0.1,0,0.1,0,0.2c0,0,0,0,0,0c0,0,0,0,0,0c0,0,0,0,0,0c0,0,0,0,0,0l5.7,2.7c0,0,0,0,0,0
		c0,0,0,0,0.1,0c0,0,0,0,0,0s0,0,0,0c0,0,0,0,0,0c0,0,0,0,0.1,0c0,0,0,0,0,0l0,0c0,0,0,0,0,0l0,0l5.8-2.7c0,0,0,0,0,0c0,0,0,0,0,0
		c0.1-0.1,0.1-0.2,0.1-0.3l-3.3-5.6L8.1,1.5C8.1,1.6,8.1,1.6,8.1,1.5z M4.9,11.4L6,9.5l1.1,3.9L4.9,11.4z M11,11.5l-2.7,2.2
		c0,0,0-0.1,0-0.1L8,12.6L7,9.2l1,0.6L11,11.5z M9.4,8.6H8H6.5l1-1.7L8,6.1L8.5,7L9.4,8.6z"/>
</g>
</svg>
